<svg width="13" height="12" viewBox="0 0 13 12" version="1.1" xmlns="http://www.w3.org/2000/svg" xmlns:xlink="http://www.w3.org/1999/xlink">
<title>sound</title>
<desc>Created using Figma</desc>
<g id="Canvas" transform="translate(-2877 -718)">
<g id="sound">
<use xlink:href="#path0_fill" transform="translate(2877 718)" fill="#FFFFFF"/>
</g>
</g>
<defs>
<path id="path0_fill" d="M 11.8142 8.07111L 11.9884 8.18313C 12.0552 8.22612 12.0795 8.31231 12.0448 8.38384L 10.4651 11.6431C 10.4382 11.6986 10.3825 11.7316 10.3237 11.7316C 10.3067 11.7316 10.2895 11.7289 10.2727 11.7231L 9.28785 11.3848L 9.0327 11.9114C 9.01309 11.9518 8.97707 11.9819 8.93382 11.9941C 8.91986 11.9981 8.90553 11.9999 8.89132 11.9999C 8.86146 11.9999 8.83192 11.9914 8.80627 11.975L 6.95752 10.7855C 6.8907 10.7424 6.86644 10.6563 6.90114 10.5847L 9.00592 6.2421C 9.04056 6.17062 9.12309 6.13636 9.19834 6.16207L 11.0395 6.79433C 11.1936 5.69816 10.9899 4.55358 10.4364 3.58608C 9.69865 2.29648 8.38837 1.37739 6.93137 1.12751C 5.43326 0.870537 3.86406 1.31981 2.7335 2.32961C 1.59942 3.34249 0.975707 4.85456 1.0651 6.37436C 1.07333 6.51485 1.08886 6.65541 1.10922 6.79546L 2.95351 6.16214C 3.02888 6.13643 3.11136 6.17075 3.14599 6.24216L 5.25071 10.5848C 5.28541 10.6564 5.26121 10.7425 5.19433 10.7855L 3.34558 11.975C 3.31999 11.9915 3.29045 12 3.26053 12C 3.24626 12 3.23199 11.9981 3.21803 11.9942C 3.17478 11.982 3.13876 11.9518 3.11915 11.9114L 2.864 11.3849L 1.87915 11.7232C 1.8623 11.7289 1.84508 11.7317 1.82811 11.7317C 1.76933 11.7317 1.71357 11.6986 1.68667 11.6431L 0.107152 8.38391C 0.072453 8.31231 0.0967175 8.22619 0.163539 8.18319L 0.336973 8.07161C 0.153796 7.54615 0.0432854 6.99882 0.0102204 6.43634C -0.097901 4.59727 0.657 2.76744 2.02964 1.54146C 3.39813 0.319055 5.29736 -0.225135 7.11009 0.0859655C 8.8746 0.38858 10.461 1.50091 11.3537 3.06132C 12.2168 4.57005 12.377 6.43433 11.8142 8.07111Z"/>
</defs>
</svg>
